<?xml version="1.0" standalone="no"?>
<!DOCTYPE svg PUBLIC "-//W3C//DTD SVG 20010904//EN"
 "http://www.w3.org/TR/2001/REC-SVG-20010904/DTD/svg10.dtd">
<svg version="1.0" xmlns="http://www.w3.org/2000/svg"
 width="512.000000pt" height="512.000000pt" viewBox="0 0 512.000000 512.000000"
 preserveAspectRatio="xMidYMid meet">
<metadata>
Created by potrace 1.11, written by Peter Selinger 2001-2013
</metadata>
<g transform="translate(0.000000,512.000000) scale(0.100000,-0.100000)"
fill="#000000" stroke="none">
<path d="M0 2560 l0 -2560 2560 0 2560 0 0 2560 0 2560 -2560 0 -2560 0 0
-2560z m4610 0 l0 -2050 -2050 0 -2050 0 0 2050 0 2050 2050 0 2050 0 0 -2050z"/>
<path d="M647 4473 c-4 -3 -7 -865 -7 -1915 l0 -1908 1915 0 1915 0 0 1915 0
1915 -1908 0 c-1050 0 -1912 -3 -1915 -7z m1043 -1668 l0 -705 -120 0 -120 0
0 705 0 705 120 0 120 0 0 -705z m680 697 c0 -5 -8 -16 -18 -26 -11 -9 -54
-75 -98 -147 -43 -71 -134 -220 -202 -331 -90 -147 -121 -205 -116 -220 3 -11
70 -110 148 -219 77 -110 158 -225 178 -257 21 -32 58 -82 83 -111 82 -96 86
-91 -68 -91 l-134 0 -79 118 c-43 64 -85 129 -92 144 -8 14 -28 44 -46 65 -18
21 -62 82 -99 136 l-66 98 2 142 3 142 83 135 c46 74 119 196 163 270 45 74
85 141 91 148 11 14 267 18 267 4z m600 -697 l0 -705 -115 0 -115 0 0 705 0
705 115 0 115 0 0 -705z m322 690 c143 -30 229 -88 278 -188 37 -75 49 -179
31 -254 -16 -66 -71 -143 -126 -178 l-46 -29 50 -18 c57 -22 160 -118 195
-183 18 -34 21 -56 20 -145 0 -139 -22 -196 -102 -272 -103 -98 -198 -128
-405 -128 l-138 0 3 83 3 82 145 5 c179 6 202 17 245 112 52 116 32 244 -48
315 -49 43 -91 53 -229 53 l-118 0 0 79 0 79 120 4 c101 3 124 7 147 24 65 48
92 131 78 234 -15 111 -87 160 -245 168 l-100 5 0 83 0 84 88 0 c48 0 117 -7
154 -15z m-1202 -2216 c0 -130 0 -130 -22 -127 -22 3 -23 7 -26 117 -3 129 -1
141 28 141 19 0 20 -6 20 -131z m140 0 c0 -127 -1 -130 -21 -127 -32 5 -111
146 -107 190 3 33 3 32 43 -35 l40 -68 3 85 c3 78 5 86 22 86 19 0 20 -8 20
-131z m130 1 l0 -130 -25 0 -25 0 0 130 0 130 25 0 25 0 0 -130z m120 115 c0
-12 -13 -15 -55 -15 -42 0 -55 3 -55 15 0 12 13 15 55 15 42 0 55 -3 55 -15z
m125 -77 c18 -92 34 -142 35 -106 0 36 42 198 51 198 15 0 10 -78 -12 -171
-20 -85 -22 -89 -48 -89 -26 0 -28 4 -59 124 -17 68 -32 126 -32 130 0 3 11 6
24 6 22 0 25 -7 41 -92z m125 88 c0 -21 35 -163 45 -182 12 -24 13 -22 29 48
9 40 19 88 22 106 5 25 11 32 30 32 13 0 24 -3 24 -7 -1 -5 -16 -62 -34 -128
l-33 -120 -34 0 -34 0 -17 75 c-18 85 -23 180 -8 180 6 0 10 -2 10 -4z m269
-43 c-10 -19 -10 -28 -1 -43 13 -21 16 -50 5 -50 -4 0 -17 10 -30 22 -32 30
-30 71 4 98 32 25 43 12 22 -27z m76 27 c0 -22 -39 -19 -43 3 -3 15 1 18 20
15 12 -2 23 -10 23 -18z m-605 -105 c0 -11 -12 -15 -50 -15 -38 0 -50 4 -50
15 0 11 12 15 50 15 38 0 50 -4 50 -15z m601 -13 c15 -13 22 -30 22 -52 0 -31
-30 -70 -54 -70 -14 0 -10 30 6 46 8 9 15 19 15 24 0 5 -7 15 -15 24 -16 16
-20 46 -6 46 5 0 19 -8 32 -18z m-64 -97 c3 -9 3 -18 0 -22 -11 -10 -57 7 -57
22 0 20 49 20 57 0z m-527 -10 c0 -12 -13 -15 -55 -15 -42 0 -55 3 -55 15 0
12 13 15 55 15 42 0 55 -3 55 -15z"/>
</g>
</svg>
